<svg xmlns="http://www.w3.org/2000/svg" version="1.0" width="626.000000pt" height="626.000000pt" viewBox="0 0 626.000000 626.000000" preserveAspectRatio="xMidYMid meet">

<g transform="translate(0.000000,626.000000) scale(0.100000,-0.100000)" fill="#408260" stroke="none">
<path d="M4493 5403 c-18 -2 -33 -9 -33 -14 0 -5 16 -41 35 -79 39 -77 43 -114 19 -142 -16 -17 -15 -22 4 -75 12 -31 20 -58 19 -58 -40 -19 -56 -39 -63 -80 -6 -46 -7 -46 -43 -43 -36 3 -36 3 -33 44 3 34 0 42 -20 51 -18 8 -28 7 -43 -3 -26 -19 -64 -17 -102 5 -71 44 -198 64 -246 40 -12 -6 -41 -31 -63 -55 -49 -52 -73 -55 -161 -22 -32 12 -60 23 -62 24 -1 2 9 18 23 37 26 34 27 36 24 183 l-3 149 -28 3 c-17 2 -48 -8 -82 -28 -70 -40 -172 -61 -282 -58 -85 3 -90 2 -154 -35 -74 -42 -88 -43 -167 -21 -97 27 -107 33 -130 80 -28 57 -74 87 -125 80 -48 -5 -56 -13 -33 -29 13 -10 17 -24 14 -67 l-3 -55 -54 -17 c-30 -10 -69 -31 -85 -47 -17 -15 -58 -45 -91 -66 -86 -53 -125 -93 -125 -127 0 -21 -6 -31 -24 -38 -47 -18 -42 -108 8 -149 18 -15 22 -41 6 -41 -20 0 -79 -62 -85 -90 -4 -17 -11 -30 -17 -30 -5 0 -9 -10 -8 -22 4 -43 0 -53 -22 -63 -35 -16 -59 -67 -65 -145 -5 -63 -3 -74 16 -101 l22 -29 -51 0 c-51 0 -88 -12 -102 -34 -4 -6 -8 -27 -8 -47 0 -20 -10 -59 -21 -88 -24 -57 -48 -66 -90 -32 -22 17 -45 19 -209 21 -241 3 -220 7 -220 -38 0 -68 -54 -215 -97 -264 -20 -23 -47 -9 -61 32 -9 24 -17 30 -41 30 -28 0 -30 -3 -37 -46 -6 -45 3 -355 12 -378 2 -6 18 -19 34 -28 43 -24 46 -56 21 -203 -24 -147 -27 -198 -9 -212 25 -20 93 -36 173 -42 l80 -6 3 -54 c3 -44 -1 -58 -19 -77 -36 -38 -49 -31 -49 25 0 57 -7 61 -105 61 -64 0 -105 -18 -105 -46 0 -9 -6 -14 -12 -12 -8 3 -14 29 -16 71 -3 64 -4 68 -35 84 -22 11 -64 18 -132 21 -90 4 -102 7 -123 29 -18 20 -30 24 -69 21 l-46 -3 -18 -65 c-34 -122 -22 -180 36 -180 19 0 38 -6 42 -14 5 -8 26 -21 48 -28 52 -17 55 -42 20 -148 -31 -94 -30 -134 3 -138 13 -2 41 -21 63 -42 38 -37 39 -39 39 -108 0 -39 9 -115 19 -169 11 -54 21 -125 23 -158 l3 -60 -32 -3 c-32 -3 -33 -5 -33 -50 0 -62 -18 -95 -60 -108 -18 -6 -41 -20 -50 -31 -11 -14 -34 -22 -73 -27 -31 -4 -57 -10 -57 -14 0 -3 16 -20 36 -38 49 -45 45 -77 -11 -84 -38 -5 -42 -8 -75 -76 -58 -116 -65 -124 -112 -124 -35 0 -48 -7 -89 -45 -26 -25 -55 -45 -62 -45 -20 0 -27 -31 -27 -122 0 -72 -2 -79 -36 -123 -19 -26 -40 -58 -46 -71 -6 -13 -19 -24 -28 -24 -27 0 -40 -22 -40 -68 0 -43 1 -44 28 -37 15 3 76 12 135 18 86 10 112 16 122 31 8 10 21 16 29 13 9 -4 31 0 49 8 20 8 49 12 69 9 30 -5 38 -2 65 29 21 24 44 38 69 43 23 4 54 22 79 45 35 32 49 39 84 39 37 0 44 -4 62 -35 36 -60 90 -57 102 5 5 22 12 29 34 32 21 2 29 9 31 28 2 14 8 29 13 35 17 18 10 62 -11 68 -29 7 -25 42 7 72 24 21 26 28 16 45 -7 10 -15 37 -19 59 -6 34 -4 40 16 46 13 4 38 23 55 42 l32 35 24 -32 c13 -17 33 -42 45 -55 33 -36 38 -80 11 -98 -19 -12 -20 -17 -9 -41 19 -43 57 -35 113 24 27 28 56 50 67 50 16 0 21 7 24 32 4 46 24 45 66 -1 44 -49 76 -53 120 -16 17 14 37 25 46 25 9 0 16 8 16 20 0 11 -4 20 -10 20 -21 0 -9 31 15 40 38 15 32 48 -17 91 -41 36 -42 37 -25 62 9 14 27 27 39 29 19 2 24 10 26 44 l3 41 67 5 c83 6 118 24 171 87 l41 49 -45 27 c-38 22 -44 29 -34 41 17 21 32 17 64 -16 38 -39 55 -38 56 3 0 17 4 41 8 52 7 18 9 18 23 -9 15 -29 16 -29 27 -8 6 11 21 22 32 24 22 3 32 15 44 53 6 18 8 17 22 -10 33 -64 74 -90 99 -65 12 12 69 -69 80 -115 11 -50 21 -55 98 -55 58 0 78 -5 111 -25 34 -21 52 -24 128 -25 54 0 87 4 87 10 0 14 91 105 110 112 12 4 11 10 -4 33 -15 22 -16 30 -6 33 7 3 29 19 49 38 29 26 47 33 85 36 60 4 84 30 51 54 -20 15 -20 15 -1 30 32 23 46 17 46 -20 0 -18 7 -39 15 -46 17 -14 45 -7 45 13 0 7 20 33 45 57 25 25 56 67 69 95 45 95 88 148 144 178 29 16 63 42 75 59 19 27 126 108 142 108 3 0 18 13 34 29 36 37 57 48 117 61 27 6 117 42 201 81 103 47 181 76 244 90 118 26 232 73 280 116 25 22 44 53 55 86 25 77 80 126 204 184 58 27 112 58 120 68 9 11 15 39 15 74 0 51 -2 56 -22 59 -51 7 -13 58 86 114 71 41 132 104 165 170 l26 52 -22 9 c-12 4 -27 6 -34 3 -7 -3 -14 8 -17 28 -3 18 -21 57 -39 87 -50 79 -77 150 -84 218 -6 53 -3 66 21 113 15 29 59 86 98 126 120 121 216 155 362 128 38 -7 41 -6 59 28 10 19 29 45 42 57 44 41 25 114 -39 148 -23 12 -53 28 -67 36 -14 8 -43 22 -65 32 -34 16 -41 24 -51 66 -21 83 -53 100 -92 48 -13 -18 -33 -31 -49 -33 -16 -2 -29 -9 -29 -15 -1 -7 -2 -16 -3 -20 0 -3 -12 4 -26 17 -22 21 -25 32 -25 91 0 62 -2 69 -29 92 -20 16 -48 27 -85 31 -43 6 -60 13 -76 33 -11 14 -20 31 -20 38 0 7 -12 15 -28 18 -20 4 -32 16 -45 46 -19 43 -64 77 -115 87 -27 6 -36 1 -63 -27 -20 -22 -34 -29 -36 -21 -10 27 -93 132 -115 143 -13 7 -54 13 -91 14 -55 2 -72 7 -88 24 -20 21 -45 24 -126 14z m114 -32 c4 -16 16 -19 90 -23 l86 -3 42 -49 c24 -26 51 -63 61 -82 22 -40 50 -44 66 -9 15 34 52 42 94 21 35 -16 74 -68 74 -97 0 -10 11 -19 30 -22 19 -4 35 -17 45 -37 18 -35 40 -46 107 -55 35 -5 53 -13 72 -35 21 -26 24 -36 19 -88 -5 -56 -4 -59 27 -85 38 -32 46 -33 60 -7 6 11 19 20 30 20 10 0 30 14 43 31 14 18 30 29 36 25 6 -4 18 -31 26 -61 18 -61 24 -67 80 -85 22 -7 54 -24 71 -37 17 -12 36 -23 42 -23 21 0 52 -39 52 -65 0 -14 -15 -45 -34 -69 -19 -25 -36 -51 -38 -57 -4 -11 -16 -10 -61 0 -119 29 -219 -11 -341 -134 -113 -114 -127 -139 -127 -234 0 -88 19 -147 82 -252 21 -36 39 -73 39 -82 0 -20 -30 -37 -67 -37 -41 0 -75 -21 -86 -53 -5 -16 -7 -30 -4 -33 7 -7 109 27 128 42 8 8 23 14 31 14 9 0 18 7 22 15 5 14 36 22 36 10 0 -3 -9 -24 -21 -46 -27 -53 -91 -117 -154 -153 -74 -42 -115 -85 -115 -118 0 -23 4 -28 25 -28 22 0 25 -4 25 -39 0 -55 -27 -80 -134 -127 -113 -50 -186 -116 -206 -188 -8 -29 -26 -61 -47 -81 -42 -41 -161 -91 -273 -115 -93 -20 -166 -48 -292 -111 -43 -21 -112 -48 -155 -60 -43 -12 -88 -30 -100 -42 -25 -22 -29 -22 -35 8 -2 15 10 27 57 52 104 55 140 118 95 163 -28 28 -70 25 -118 -9 -22 -17 -65 -44 -95 -61 -31 -17 -72 -49 -91 -71 -30 -32 -36 -47 -36 -83 0 -24 -3 -51 -6 -60 -3 -9 -1 -16 5 -16 15 0 47 37 66 76 10 22 20 31 30 28 21 -8 19 -21 -5 -34 -11 -6 -20 -17 -20 -25 0 -10 7 -12 31 -5 29 9 59 4 59 -9 0 -3 -24 -21 -54 -39 -29 -18 -68 -51 -85 -73 -18 -21 -54 -50 -80 -64 -51 -25 -100 -88 -149 -190 -13 -27 -42 -65 -63 -83 -21 -18 -41 -41 -44 -52 -11 -34 -25 -22 -25 19 0 22 -5 43 -10 46 -14 9 -76 -13 -92 -32 -11 -13 -9 -18 10 -31 34 -23 26 -32 -28 -32 -43 0 -55 -5 -89 -35 -21 -19 -48 -35 -60 -35 -25 0 -27 -12 -6 -44 15 -23 14 -26 -44 -84 -54 -55 -65 -61 -113 -67 -46 -6 -59 -3 -103 21 -42 23 -63 28 -128 29 -82 1 -97 9 -97 50 0 26 -68 135 -84 135 -6 0 -17 -5 -22 -10 -24 -24 -70 29 -84 94 -3 18 -13 32 -23 34 -13 3 -17 -4 -17 -30 0 -60 -10 -80 -36 -74 -12 3 -26 1 -29 -5 -5 -6 -12 -3 -22 10 -22 32 -31 26 -43 -35 l-12 -56 -27 26 c-31 30 -48 32 -79 10 -31 -21 -28 -39 13 -64 19 -12 35 -26 35 -31 0 -5 -16 -26 -35 -48 -39 -43 -102 -66 -172 -63 -24 1 -44 -3 -44 -8 -1 -6 -3 -14 -4 -20 -1 -5 -3 -20 -4 -33 -1 -16 -11 -28 -34 -38 -26 -11 -33 -21 -35 -48 -3 -29 2 -39 32 -66 41 -36 45 -50 16 -58 -24 -6 -38 -56 -19 -67 10 -7 7 -11 -11 -19 -14 -6 -36 -20 -50 -31 -31 -25 -50 -20 -73 20 -17 29 -77 57 -97 45 -5 -3 -10 -19 -10 -36 0 -19 -5 -29 -15 -29 -9 0 -37 -23 -62 -50 -44 -48 -75 -62 -88 -39 -4 6 3 21 15 34 20 21 20 26 9 64 -7 23 -18 41 -25 41 -8 0 -16 11 -20 25 -6 26 -57 75 -78 75 -6 0 -20 -14 -30 -31 -10 -16 -34 -38 -53 -47 l-35 -17 7 -55 c4 -30 12 -58 17 -61 6 -4 1 -13 -12 -22 -14 -9 -24 -29 -27 -55 -5 -34 -2 -41 16 -47 22 -7 28 -29 11 -40 -5 -3 -10 -17 -10 -30 0 -17 -6 -25 -22 -27 -15 -2 -29 -16 -41 -41 -21 -45 -45 -46 -65 -4 -15 32 -47 47 -98 47 -26 0 -45 -9 -78 -40 -28 -26 -58 -43 -79 -47 -22 -3 -48 -18 -68 -39 -29 -30 -39 -34 -84 -34 -28 0 -57 -6 -64 -13 -11 -9 -14 -9 -18 1 -8 20 -30 14 -50 -14 -18 -25 -26 -26 -119 -31 -54 -2 -103 -9 -109 -14 -18 -17 -26 -9 -23 23 2 24 9 34 25 38 13 3 32 22 44 45 12 22 29 49 39 60 33 37 40 64 40 149 0 74 2 85 19 91 10 3 38 23 62 45 36 33 51 40 86 40 48 0 59 11 117 127 29 58 41 73 59 73 12 0 33 3 46 7 21 5 23 10 18 47 -3 24 -14 48 -26 58 -30 24 -26 28 25 28 37 0 47 4 51 20 3 13 20 24 45 32 49 14 67 40 75 106 5 46 8 52 34 57 28 6 29 8 29 70 0 34 -9 107 -20 160 -11 53 -20 132 -20 175 l0 78 -45 46 c-24 25 -53 46 -65 46 -27 0 -26 28 5 120 39 114 32 153 -30 164 -24 5 -39 14 -44 28 -6 17 -16 22 -47 22 -38 1 -39 2 -42 40 -2 22 4 68 14 103 l17 63 39 0 c30 0 41 -4 45 -19 4 -16 19 -19 108 -24 56 -3 119 -13 139 -21 36 -15 36 -16 36 -74 0 -32 6 -66 13 -76 14 -19 48 -19 48 -1 1 18 30 43 57 48 15 2 47 2 72 -2 l45 -6 5 -50 c4 -41 9 -51 26 -53 12 -2 34 8 49 21 23 19 29 34 32 78 3 30 1 65 -4 78 -9 22 -15 23 -99 25 -57 1 -102 8 -127 18 -34 16 -37 20 -37 56 0 22 9 91 20 153 11 63 20 128 20 144 0 36 -24 73 -54 85 -20 7 -24 18 -29 92 -4 45 -7 136 -7 201 0 110 1 117 20 117 13 0 25 -11 34 -34 16 -37 46 -50 73 -31 29 20 92 164 107 241 l12 69 185 -4 c162 -3 188 -6 220 -24 51 -29 80 -19 103 38 10 26 21 68 23 93 3 26 12 53 21 60 9 7 44 12 79 12 71 0 78 10 42 60 -19 25 -21 37 -16 96 7 74 25 110 63 124 24 9 29 23 25 68 -1 12 3 22 9 22 5 0 10 7 10 15 0 31 24 63 66 90 24 15 44 31 44 34 0 3 -16 26 -35 50 -47 59 -46 94 3 120 15 8 22 21 22 39 0 34 40 74 125 127 33 21 74 50 90 65 17 16 50 34 75 40 66 17 70 24 70 102 l0 70 28 -7 c35 -9 62 -32 78 -70 19 -46 42 -61 132 -85 97 -26 125 -23 196 23 49 31 54 32 161 33 129 1 190 14 262 55 93 52 93 51 93 -111 l0 -139 -35 -35 c-19 -20 -35 -39 -35 -43 1 -10 168 -64 198 -63 13 0 48 24 83 56 l61 56 67 -4 c48 -2 84 -12 133 -36 73 -35 89 -38 138 -21 41 15 57 -4 34 -39 -21 -32 -8 -44 55 -50 49 -4 50 -4 56 24 12 60 21 79 43 90 34 17 34 18 13 80 -19 51 -19 60 -6 74 23 26 18 76 -16 147 -36 75 -32 83 39 83 35 0 45 -4 49 -19z m728 -1661 c-7 -12 -77 -32 -84 -24 -3 3 3 12 13 20 22 16 81 19 71 4z m-1237 -872 c36 -36 -15 -99 -115 -145 -29 -14 -53 -25 -53 -26 0 -1 4 -17 9 -35 11 -35 9 -37 -18 -20 -10 6 -16 19 -14 28 3 13 -5 21 -28 29 -17 6 -33 11 -35 11 -2 0 -14 -19 -26 -42 l-23 -43 -3 33 c-4 39 25 79 81 114 21 12 68 42 105 66 68 43 99 51 120 30z" fill="#408260"/>
</g>
</svg>